<svg width="20" height="20" viewBox="0 0 20 20" fill="none" xmlns="http://www.w3.org/2000/svg">
<path fill-rule="evenodd" clip-rule="evenodd" d="M2.77728 9.99999C2.77728 9.53976 3.15038 9.16666 3.61062 9.16666L14.3769 9.16666L11.3547 6.14484C11.0293 5.81941 11.0292 5.29178 11.3547 4.96632C11.6801 4.64087 12.2077 4.64084 12.5332 4.96626L16.9781 9.41071C17.1344 9.56699 17.2222 9.77896 17.2222 9.99999C17.2222 10.221 17.1344 10.433 16.9781 10.5893L12.5332 15.0337C12.2077 15.3591 11.6801 15.3591 11.3547 15.0337C11.0292 14.7082 11.0293 14.1806 11.3547 13.8552L14.3769 10.8333L3.61062 10.8333C3.15038 10.8333 2.77728 10.4602 2.77728 9.99999Z" fill="#2F2F2F"/>
</svg>
