<svg width="20" height="20" viewBox="0 0 20 20" fill="none" xmlns="http://www.w3.org/2000/svg">
<path fill-rule="evenodd" clip-rule="evenodd" d="M17.5 10C17.5 10.4602 17.1269 10.8333 16.6667 10.8333L5.90087 10.8333L8.923 13.8552C9.24845 14.1806 9.24848 14.7082 8.92306 15.0337C8.59764 15.3591 8.07 15.3592 7.74455 15.0337L3.29966 10.5893C3.14336 10.433 3.05555 10.221 3.05555 10C3.05555 9.77898 3.14336 9.567 3.29966 9.41072L7.74455 4.96628C8.07 4.64086 8.59764 4.64088 8.92306 4.96634C9.24848 5.29179 9.24845 5.81943 8.923 6.14485L5.90087 9.16667L16.6667 9.16667C17.1269 9.16667 17.5 9.53977 17.5 10Z" fill="white"/>
</svg>
