<svg width="234" height="22" viewBox="0 0 234 22" fill="none" xmlns="http://www.w3.org/2000/svg">
<g clip-path="url(#clip0_54_556)">
<path d="M101.421 5.43446V18.142H98.8503V5.43446H94.035V3.17532H106.236V5.43446H101.421Z" fill="#2F2F2F"/>
<path d="M109.542 8.52122C110.362 7.34378 111.519 6.80964 112.865 6.80964C114.788 6.80964 116.612 8.00497 116.612 10.8161V18.142H114.22V11.5042C114.22 9.53493 113.426 8.83347 111.981 8.83347C110.728 8.83347 109.461 10.1147 109.461 12.2593V18.142H107.069V2.96597H109.461V8.52122H109.542Z" fill="#2F2F2F"/>
<path d="M127.973 14.8906C127.507 16.4761 126.154 18.397 122.884 18.397C119.614 18.397 117.682 16.0949 117.682 12.6243C117.682 9.15377 119.668 6.80963 122.866 6.80963C126.064 6.80963 128.325 9.13319 128.045 13.1656H120.107C120.16 15.1 121.209 16.5199 122.884 16.5199C124.56 16.5199 125.304 15.3854 125.548 14.6285L127.973 14.8906ZM120.147 11.4228H125.62C125.478 9.96527 124.592 8.67331 122.867 8.67331C121.142 8.67331 120.288 9.96438 120.147 11.4228Z" fill="#2F2F2F"/>
<path d="M135 3.17624C139.22 3.17624 142.06 5.65816 142.06 10.6596C142.06 15.661 139.22 18.1429 135 18.1429H129.366V3.17624H135ZM134.654 15.9795C137.696 15.9795 139.444 14.2357 139.444 10.6596C139.444 7.08343 137.696 5.33875 134.654 5.33875H131.937V15.9795H134.654Z" fill="#2F2F2F"/>
<path d="M153.702 13.1567C153.702 16.8814 151.388 18.4784 148.282 18.4784C145.176 18.4784 143.14 16.6899 142.788 13.2596C142.764 12.9733 142.763 12.7657 142.783 12.5716L145.218 12.3372C145.201 12.5465 145.198 12.763 145.221 12.9733C145.47 15.3622 146.576 16.2596 148.282 16.2596C150.108 16.2596 151.116 15.3622 151.116 12.9733V3.17624H153.702V13.1567Z" fill="#2F2F2F"/>
<path d="M162.247 3.17624C165.144 3.17624 166.747 4.8055 166.747 7.24985C166.747 8.59281 166.159 9.62441 164.92 10.1541V10.2382C166.398 10.8063 167.234 11.9855 167.234 13.7982C167.234 16.4358 165.555 18.1429 162.505 18.1429H155.586V3.17624H162.247ZM161.825 9.45531C163.355 9.45531 164.15 8.69391 164.15 7.38674C164.15 6.07957 163.355 5.31817 161.825 5.31817H158.157V9.45531H161.825ZM162.073 15.9536C163.751 15.9536 164.618 15.117 164.618 13.6944C164.618 12.2719 163.751 11.4353 162.073 11.4353H158.156V15.9536H162.073Z" fill="#2F2F2F"/>
<path d="M170.943 2.96597V18.1429H168.551V2.96597H170.943Z" fill="#2F2F2F"/>
<path d="M179.668 16.6854C178.869 17.8629 177.691 18.397 176.298 18.397C174.313 18.397 172.489 17.2008 172.489 14.3896V7.06373H174.881V13.7016C174.881 15.6717 175.675 16.3723 177.12 16.3723C178.409 16.3723 179.64 15.2745 179.64 13.129V7.06284H182.032V18.142H179.751V16.6845H179.669L179.668 16.6854Z" fill="#2F2F2F"/>
<path d="M193.439 14.8906C192.973 16.4761 191.62 18.397 188.35 18.397C185.081 18.397 183.149 16.0949 183.149 12.6243C183.149 9.15377 185.134 6.80963 188.332 6.80963C191.53 6.80963 193.791 9.13319 193.511 13.1656H185.574C185.627 15.1 186.675 16.5199 188.35 16.5199C190.026 16.5199 190.77 15.3854 191.014 14.6285L193.439 14.8906ZM185.613 11.4228H191.086C190.944 9.96527 190.058 8.67331 188.333 8.67331C186.608 8.67331 185.755 9.96438 185.613 11.4228Z" fill="#2F2F2F"/>
<path d="M197.14 16.8716H197.058V22H194.666V7.06375H196.947V8.48544H197.029C197.647 7.38048 198.861 6.81055 200.349 6.81055C203.166 6.81055 205.193 9.09474 205.193 12.6011C205.193 16.1075 203.166 18.3979 200.369 18.3979C198.869 18.3979 197.745 17.8343 197.14 16.8724V16.8716ZM196.91 12.6029C196.91 15.041 198.052 16.4591 199.824 16.4591C201.595 16.4591 202.754 15.041 202.754 12.6029C202.754 10.1648 201.614 8.74938 199.824 8.74938C198.033 8.74938 196.91 10.1684 196.91 12.6029Z" fill="#2F2F2F"/>
<path d="M208.63 8.73594H208.712C209.259 7.65245 210.368 6.80963 211.918 6.80963C212.224 6.80963 212.562 6.8481 212.804 6.90894V9.24503C212.526 9.20566 212.133 9.16093 211.719 9.16093C210.011 9.16093 208.741 9.97422 208.741 12.3586V18.1429H206.349V7.06462H208.63V8.73683V8.73594Z" fill="#2F2F2F"/>
<path d="M215.911 2.96597V5.37632H213.519V2.96597H215.911ZM215.911 7.06374V18.1429H213.519V7.06374H215.911Z" fill="#2F2F2F"/>
<path d="M219.831 8.52121C220.63 7.34377 221.808 6.80963 223.201 6.80963C225.186 6.80963 227.01 8.00496 227.01 10.8161V18.142H224.618V11.5042C224.618 9.53492 223.824 8.83436 222.379 8.83436C221.09 8.83436 219.859 9.93127 219.859 12.0768V18.1429H217.467V7.06373H219.748V8.52121H219.83H219.831Z" fill="#2F2F2F"/>
<path d="M232.913 16.1379C233.161 16.1379 233.603 16.1379 233.894 16.1191V18.142C233.651 18.1662 232.818 18.1841 232.225 18.1841C230.216 18.1841 229.297 17.7126 229.297 15.661V8.82363H227.543V7.06285H229.297V3.95105H231.689V7.06285H234.001V8.82363H231.689V15.0186C231.689 16.0323 232.071 16.137 232.913 16.137V16.1379Z" fill="#2F2F2F"/>
<path d="M90.7749 11.6017C90.7609 13.9208 89.8919 16.2354 88.1695 18.0042L88.1539 18.0203C87.8143 18.3684 87.4538 18.6815 87.0767 18.9616L80.8665 12.5805L82.9154 10.4753L87.0297 14.7028C87.5844 13.7508 87.8683 12.6771 87.877 11.6017C87.8926 10.0172 87.3179 8.42727 86.1494 7.21226C86.1398 7.20152 86.1302 7.19168 86.1206 7.18094C84.9486 5.97756 83.4143 5.37542 81.8783 5.37631C80.3423 5.37631 78.808 5.97756 77.6368 7.18094L77.6212 7.19705C77.279 7.55046 76.9873 7.93697 76.7461 8.34585C76.1574 9.34166 75.8692 10.4726 75.8805 11.6008C75.8953 13.1585 76.4805 14.7099 77.6368 15.8981C77.6464 15.9088 77.656 15.9178 77.6664 15.9276L75.6167 18.0338L75.5871 18.0033C73.8656 16.2345 72.9966 13.9199 72.9818 11.6008C72.9696 9.70492 73.5277 7.80545 74.6554 6.19855C74.927 5.81114 75.2327 5.44073 75.5714 5.0909L75.5871 5.0748C77.3242 3.29075 79.6013 2.39783 81.8774 2.39783C84.1536 2.39783 86.4315 3.28985 88.1695 5.07569L88.1992 5.10611C89.932 6.90269 90.7905 9.25398 90.7749 11.6008V11.6017Z" fill="#2F2F2F"/>
<path d="M63.6743 21.4999V0H66.2518V21.4999H63.6743Z" fill="#2F2F2F"/>
<path d="M2.57396 9.59933H9.99545V11.7073H2.57396V18.1062H0V3.13953H10.3324V5.30293H2.57396V9.59933Z" fill="#2F2F2F"/>
<path d="M18.0761 18.1062C17.9046 17.9067 17.7548 17.3538 17.7548 16.6121C17.0721 17.8199 15.5091 18.3612 14.1603 18.3612C12.2377 18.3612 10.5789 17.114 10.5789 15.058C10.5789 12.67 12.2542 11.7842 15.1294 11.4755C17.201 11.2465 17.7374 10.8886 17.7374 10.2077C17.7374 9.29245 17.1339 8.67331 15.6258 8.67331C14.5635 8.67331 13.556 9.22893 13.1877 10.4448L10.9907 10.0029C11.4627 7.98618 13.2948 6.77563 15.705 6.77563C18.8894 6.77563 20.1302 8.2859 20.1302 10.2292V15.7916C20.1302 16.9986 20.1502 17.6249 20.4158 18.1089H18.0778L18.0761 18.1062ZM17.7365 12.5036C17.3899 12.8516 16.2388 13.0261 15.1085 13.1755C14.0157 13.3276 13.0161 13.859 13.0161 15.0043C13.0161 15.9983 13.6779 16.5298 14.7393 16.5298C16.0516 16.5298 17.7374 15.7505 17.7374 13.7624V12.5036H17.7365Z" fill="#2F2F2F"/>
<path d="M26.0844 16.1012C26.3317 16.1012 26.7741 16.1012 27.0649 16.0824V18.1053C26.822 18.1295 25.9887 18.1474 25.3957 18.1474C23.3868 18.1474 22.4682 17.6759 22.4682 15.6243V8.78692H20.7145V7.02613H22.4682V3.91434H24.8602V7.02613H27.172V8.78692H24.8602V14.9819C24.8602 15.9956 25.2424 16.1003 26.0844 16.1003V16.1012Z" fill="#2F2F2F"/>
<path d="M35.4939 16.6487C34.6945 17.8262 33.5172 18.3603 32.124 18.3603C30.1387 18.3603 28.3145 17.1641 28.3145 14.3529V7.02705H30.7064V13.6649C30.7064 15.635 31.5006 16.3356 32.946 16.3356C34.2347 16.3356 35.466 15.2378 35.466 13.0923V7.02615H37.858V18.1053H35.5766V16.6479H35.4947L35.4939 16.6487Z" fill="#2F2F2F"/>
<path d="M51.8545 6.77295C53.7058 6.77295 55.4682 7.96828 55.4682 10.7795V18.1053H53.0762V11.4675C53.0762 9.49823 52.3204 8.79678 51.0099 8.79678C49.8187 8.79678 48.7041 9.89459 48.7041 12.0401V18.1062H46.3122V11.4684C46.3122 9.49913 45.5589 8.79768 44.2485 8.79768C43.0564 8.79768 41.9401 9.89548 41.9401 12.041V18.1071H39.5481V7.02794H41.8295V8.50332H41.9113C42.7107 7.32588 43.8096 6.77384 45.0905 6.77384C46.3548 6.77384 47.58 7.32946 48.2226 8.5901C49.1656 7.44667 50.2201 6.77384 51.8554 6.77384L51.8545 6.77295Z" fill="#2F2F2F"/>
</g>
<defs>
<clipPath id="clip0_54_556">
<rect width="234" height="22" fill="white"/>
</clipPath>
</defs>
</svg>
