<svg width="1000" height="275" viewBox="0 0 1000 275" fill="none" xmlns="http://www.w3.org/2000/svg">
<rect x="0.5" y="0.5" width="999" height="274" rx="15.5" fill="#D9D9D9"/>
<rect x="0.5" y="0.5" width="999" height="274" rx="15.5" stroke="black"/>
<path d="M457.737 137.68H454.854L454.838 136.469H457.455C457.888 136.469 458.265 136.396 458.588 136.25C458.911 136.104 459.161 135.896 459.338 135.625C459.52 135.349 459.612 135.021 459.612 134.641C459.612 134.224 459.531 133.885 459.369 133.625C459.213 133.359 458.971 133.167 458.643 133.047C458.32 132.922 457.908 132.859 457.408 132.859H455.19V143H453.682V131.625H457.408C457.992 131.625 458.513 131.685 458.971 131.805C459.429 131.919 459.817 132.102 460.135 132.352C460.458 132.596 460.703 132.909 460.869 133.289C461.036 133.669 461.119 134.125 461.119 134.656C461.119 135.125 461 135.549 460.76 135.93C460.52 136.305 460.187 136.612 459.76 136.852C459.338 137.091 458.843 137.245 458.276 137.312L457.737 137.68ZM457.666 143H454.26L455.112 141.773H457.666C458.145 141.773 458.552 141.69 458.885 141.523C459.224 141.357 459.481 141.122 459.658 140.82C459.836 140.513 459.924 140.151 459.924 139.734C459.924 139.312 459.849 138.948 459.697 138.641C459.546 138.333 459.309 138.096 458.987 137.93C458.664 137.763 458.247 137.68 457.737 137.68H455.588L455.604 136.469H458.541L458.862 136.906C459.408 136.953 459.872 137.109 460.252 137.375C460.632 137.635 460.921 137.969 461.119 138.375C461.322 138.781 461.424 139.229 461.424 139.719C461.424 140.427 461.268 141.026 460.955 141.516C460.648 142 460.213 142.37 459.651 142.625C459.088 142.875 458.427 143 457.666 143ZM468.096 141.555V137.203C468.096 136.87 468.029 136.581 467.893 136.336C467.763 136.086 467.565 135.893 467.299 135.758C467.034 135.622 466.706 135.555 466.315 135.555C465.95 135.555 465.63 135.617 465.354 135.742C465.083 135.867 464.87 136.031 464.713 136.234C464.562 136.438 464.487 136.656 464.487 136.891H463.042C463.042 136.589 463.12 136.289 463.276 135.992C463.432 135.695 463.656 135.427 463.948 135.188C464.245 134.943 464.599 134.75 465.01 134.609C465.427 134.464 465.891 134.391 466.401 134.391C467.016 134.391 467.557 134.495 468.026 134.703C468.5 134.911 468.87 135.227 469.135 135.648C469.406 136.065 469.542 136.589 469.542 137.219V141.156C469.542 141.438 469.565 141.737 469.612 142.055C469.664 142.372 469.739 142.646 469.838 142.875V143H468.331C468.258 142.833 468.2 142.612 468.159 142.336C468.117 142.055 468.096 141.794 468.096 141.555ZM468.346 137.875L468.362 138.891H466.901C466.489 138.891 466.122 138.924 465.799 138.992C465.476 139.055 465.206 139.151 464.987 139.281C464.768 139.411 464.601 139.576 464.487 139.773C464.372 139.966 464.315 140.193 464.315 140.453C464.315 140.719 464.375 140.961 464.495 141.18C464.614 141.398 464.794 141.573 465.034 141.703C465.279 141.828 465.578 141.891 465.932 141.891C466.375 141.891 466.766 141.797 467.104 141.609C467.443 141.422 467.711 141.193 467.909 140.922C468.112 140.651 468.221 140.388 468.237 140.133L468.854 140.828C468.818 141.047 468.719 141.289 468.557 141.555C468.396 141.82 468.18 142.076 467.909 142.32C467.643 142.56 467.325 142.76 466.956 142.922C466.591 143.078 466.18 143.156 465.721 143.156C465.148 143.156 464.646 143.044 464.213 142.82C463.786 142.596 463.453 142.297 463.213 141.922C462.979 141.542 462.862 141.117 462.862 140.648C462.862 140.195 462.95 139.797 463.127 139.453C463.305 139.104 463.56 138.815 463.893 138.586C464.226 138.352 464.627 138.174 465.096 138.055C465.565 137.935 466.088 137.875 466.667 137.875H468.346ZM472.94 136.352V143H471.495V134.547H472.862L472.94 136.352ZM472.597 138.453L471.995 138.43C472 137.852 472.086 137.318 472.253 136.828C472.419 136.333 472.654 135.904 472.956 135.539C473.258 135.174 473.617 134.893 474.034 134.695C474.456 134.492 474.922 134.391 475.432 134.391C475.849 134.391 476.224 134.448 476.557 134.562C476.891 134.672 477.175 134.849 477.409 135.094C477.649 135.339 477.831 135.656 477.956 136.047C478.081 136.432 478.143 136.904 478.143 137.461V143H476.69V137.445C476.69 137.003 476.625 136.648 476.495 136.383C476.365 136.112 476.175 135.917 475.925 135.797C475.675 135.672 475.367 135.609 475.003 135.609C474.643 135.609 474.315 135.685 474.018 135.836C473.727 135.987 473.474 136.195 473.261 136.461C473.052 136.727 472.888 137.031 472.768 137.375C472.654 137.714 472.597 138.073 472.597 138.453ZM481.464 136.352V143H480.019V134.547H481.386L481.464 136.352ZM481.12 138.453L480.519 138.43C480.524 137.852 480.61 137.318 480.777 136.828C480.943 136.333 481.178 135.904 481.48 135.539C481.782 135.174 482.141 134.893 482.558 134.695C482.98 134.492 483.446 134.391 483.956 134.391C484.373 134.391 484.748 134.448 485.081 134.562C485.415 134.672 485.698 134.849 485.933 135.094C486.172 135.339 486.355 135.656 486.48 136.047C486.605 136.432 486.667 136.904 486.667 137.461V143H485.214V137.445C485.214 137.003 485.149 136.648 485.019 136.383C484.889 136.112 484.698 135.917 484.448 135.797C484.198 135.672 483.891 135.609 483.527 135.609C483.167 135.609 482.839 135.685 482.542 135.836C482.251 135.987 481.998 136.195 481.784 136.461C481.576 136.727 481.412 137.031 481.292 137.375C481.178 137.714 481.12 138.073 481.12 138.453ZM492.05 143.156C491.462 143.156 490.928 143.057 490.449 142.859C489.975 142.656 489.566 142.372 489.222 142.008C488.884 141.643 488.623 141.211 488.441 140.711C488.259 140.211 488.167 139.664 488.167 139.07V138.742C488.167 138.055 488.269 137.443 488.472 136.906C488.675 136.365 488.951 135.906 489.3 135.531C489.649 135.156 490.045 134.872 490.488 134.68C490.931 134.487 491.389 134.391 491.863 134.391C492.467 134.391 492.988 134.495 493.425 134.703C493.868 134.911 494.23 135.203 494.511 135.578C494.792 135.948 495.001 136.385 495.136 136.891C495.272 137.391 495.339 137.938 495.339 138.531V139.18H489.027V138H493.894V137.891C493.873 137.516 493.795 137.151 493.66 136.797C493.529 136.443 493.321 136.151 493.035 135.922C492.748 135.693 492.358 135.578 491.863 135.578C491.535 135.578 491.233 135.648 490.957 135.789C490.681 135.924 490.444 136.128 490.246 136.398C490.048 136.669 489.894 137 489.785 137.391C489.675 137.781 489.621 138.232 489.621 138.742V139.07C489.621 139.471 489.675 139.849 489.785 140.203C489.899 140.552 490.063 140.859 490.277 141.125C490.496 141.391 490.759 141.599 491.066 141.75C491.378 141.901 491.733 141.977 492.128 141.977C492.639 141.977 493.071 141.872 493.425 141.664C493.779 141.456 494.089 141.177 494.355 140.828L495.23 141.523C495.048 141.799 494.816 142.062 494.535 142.312C494.253 142.562 493.907 142.766 493.496 142.922C493.089 143.078 492.608 143.156 492.05 143.156ZM498.152 135.875V143H496.707V134.547H498.113L498.152 135.875ZM500.793 134.5L500.785 135.844C500.665 135.818 500.551 135.802 500.441 135.797C500.337 135.786 500.217 135.781 500.082 135.781C499.749 135.781 499.454 135.833 499.199 135.938C498.944 136.042 498.728 136.188 498.551 136.375C498.374 136.562 498.233 136.786 498.129 137.047C498.03 137.302 497.965 137.583 497.933 137.891L497.527 138.125C497.527 137.615 497.577 137.135 497.676 136.688C497.78 136.24 497.939 135.844 498.152 135.5C498.366 135.151 498.637 134.88 498.965 134.688C499.298 134.49 499.694 134.391 500.152 134.391C500.256 134.391 500.376 134.404 500.512 134.43C500.647 134.451 500.741 134.474 500.793 134.5ZM507.293 131.625V143H505.786V131.625H507.293ZM510.934 136.227V143H509.481V134.547H510.856L510.934 136.227ZM510.637 138.453L509.966 138.43C509.971 137.852 510.046 137.318 510.192 136.828C510.338 136.333 510.554 135.904 510.841 135.539C511.127 135.174 511.484 134.893 511.911 134.695C512.338 134.492 512.833 134.391 513.395 134.391C513.791 134.391 514.156 134.448 514.489 134.562C514.822 134.672 515.111 134.846 515.356 135.086C515.601 135.326 515.791 135.633 515.927 136.008C516.062 136.383 516.13 136.836 516.13 137.367V143H514.684V137.438C514.684 136.995 514.609 136.641 514.458 136.375C514.312 136.109 514.104 135.917 513.833 135.797C513.562 135.672 513.244 135.609 512.88 135.609C512.453 135.609 512.096 135.685 511.809 135.836C511.523 135.987 511.294 136.195 511.122 136.461C510.95 136.727 510.825 137.031 510.747 137.375C510.674 137.714 510.637 138.073 510.637 138.453ZM516.114 137.656L515.145 137.953C515.151 137.49 515.226 137.044 515.372 136.617C515.523 136.19 515.739 135.81 516.02 135.477C516.307 135.143 516.658 134.88 517.075 134.688C517.492 134.49 517.968 134.391 518.505 134.391C518.958 134.391 519.359 134.451 519.708 134.57C520.062 134.69 520.359 134.875 520.598 135.125C520.843 135.37 521.028 135.685 521.153 136.07C521.278 136.456 521.341 136.914 521.341 137.445V143H519.887V137.43C519.887 136.956 519.812 136.589 519.661 136.328C519.515 136.062 519.307 135.878 519.036 135.773C518.77 135.664 518.453 135.609 518.083 135.609C517.765 135.609 517.484 135.664 517.239 135.773C516.994 135.883 516.789 136.034 516.622 136.227C516.455 136.414 516.328 136.63 516.239 136.875C516.156 137.12 516.114 137.38 516.114 137.656ZM528.193 141.555V137.203C528.193 136.87 528.125 136.581 527.989 136.336C527.859 136.086 527.661 135.893 527.396 135.758C527.13 135.622 526.802 135.555 526.411 135.555C526.047 135.555 525.726 135.617 525.45 135.742C525.179 135.867 524.966 136.031 524.81 136.234C524.659 136.438 524.583 136.656 524.583 136.891H523.138C523.138 136.589 523.216 136.289 523.372 135.992C523.528 135.695 523.752 135.427 524.044 135.188C524.341 134.943 524.695 134.75 525.107 134.609C525.523 134.464 525.987 134.391 526.497 134.391C527.112 134.391 527.653 134.495 528.122 134.703C528.596 134.911 528.966 135.227 529.232 135.648C529.502 136.065 529.638 136.589 529.638 137.219V141.156C529.638 141.438 529.661 141.737 529.708 142.055C529.76 142.372 529.836 142.646 529.935 142.875V143H528.427C528.354 142.833 528.297 142.612 528.255 142.336C528.213 142.055 528.193 141.794 528.193 141.555ZM528.443 137.875L528.458 138.891H526.997C526.586 138.891 526.219 138.924 525.896 138.992C525.573 139.055 525.302 139.151 525.083 139.281C524.864 139.411 524.698 139.576 524.583 139.773C524.469 139.966 524.411 140.193 524.411 140.453C524.411 140.719 524.471 140.961 524.591 141.18C524.711 141.398 524.89 141.573 525.13 141.703C525.375 141.828 525.674 141.891 526.028 141.891C526.471 141.891 526.862 141.797 527.2 141.609C527.539 141.422 527.807 141.193 528.005 140.922C528.208 140.651 528.318 140.388 528.333 140.133L528.95 140.828C528.914 141.047 528.815 141.289 528.653 141.555C528.492 141.82 528.276 142.076 528.005 142.32C527.739 142.56 527.422 142.76 527.052 142.922C526.687 143.078 526.276 143.156 525.818 143.156C525.245 143.156 524.742 143.044 524.31 142.82C523.883 142.596 523.549 142.297 523.31 141.922C523.075 141.542 522.958 141.117 522.958 140.648C522.958 140.195 523.047 139.797 523.224 139.453C523.401 139.104 523.656 138.815 523.989 138.586C524.323 138.352 524.724 138.174 525.193 138.055C525.661 137.935 526.185 137.875 526.763 137.875H528.443ZM537.068 134.547H538.38V142.82C538.38 143.565 538.229 144.201 537.927 144.727C537.625 145.253 537.203 145.651 536.662 145.922C536.125 146.198 535.505 146.336 534.802 146.336C534.511 146.336 534.167 146.289 533.771 146.195C533.38 146.107 532.995 145.953 532.615 145.734C532.24 145.521 531.925 145.232 531.669 144.867L532.427 144.008C532.781 144.435 533.151 144.732 533.537 144.898C533.927 145.065 534.313 145.148 534.693 145.148C535.151 145.148 535.547 145.062 535.88 144.891C536.214 144.719 536.471 144.464 536.654 144.125C536.841 143.792 536.935 143.38 536.935 142.891V136.406L537.068 134.547ZM531.247 138.867V138.703C531.247 138.057 531.323 137.471 531.474 136.945C531.63 136.414 531.852 135.958 532.138 135.578C532.43 135.198 532.781 134.906 533.193 134.703C533.604 134.495 534.068 134.391 534.583 134.391C535.115 134.391 535.578 134.484 535.974 134.672C536.375 134.854 536.714 135.122 536.99 135.477C537.271 135.826 537.492 136.247 537.654 136.742C537.815 137.237 537.927 137.797 537.99 138.422V139.141C537.932 139.76 537.82 140.318 537.654 140.812C537.492 141.307 537.271 141.729 536.99 142.078C536.714 142.427 536.375 142.695 535.974 142.883C535.573 143.065 535.104 143.156 534.568 143.156C534.063 143.156 533.604 143.049 533.193 142.836C532.787 142.622 532.438 142.323 532.146 141.938C531.854 141.552 531.63 141.099 531.474 140.578C531.323 140.052 531.247 139.482 531.247 138.867ZM532.693 138.703V138.867C532.693 139.289 532.734 139.685 532.818 140.055C532.906 140.424 533.039 140.75 533.216 141.031C533.399 141.312 533.63 141.534 533.912 141.695C534.193 141.852 534.529 141.93 534.919 141.93C535.399 141.93 535.794 141.828 536.107 141.625C536.419 141.422 536.667 141.154 536.849 140.82C537.037 140.487 537.182 140.125 537.287 139.734V137.852C537.229 137.565 537.141 137.289 537.021 137.023C536.906 136.753 536.755 136.513 536.568 136.305C536.386 136.091 536.159 135.922 535.888 135.797C535.617 135.672 535.3 135.609 534.935 135.609C534.539 135.609 534.198 135.693 533.912 135.859C533.63 136.021 533.399 136.245 533.216 136.531C533.039 136.812 532.906 137.141 532.818 137.516C532.734 137.885 532.693 138.281 532.693 138.703ZM543.763 143.156C543.175 143.156 542.641 143.057 542.162 142.859C541.688 142.656 541.279 142.372 540.935 142.008C540.597 141.643 540.336 141.211 540.154 140.711C539.972 140.211 539.881 139.664 539.881 139.07V138.742C539.881 138.055 539.982 137.443 540.185 136.906C540.388 136.365 540.664 135.906 541.013 135.531C541.362 135.156 541.758 134.872 542.201 134.68C542.644 134.487 543.102 134.391 543.576 134.391C544.18 134.391 544.701 134.495 545.138 134.703C545.581 134.911 545.943 135.203 546.224 135.578C546.506 135.948 546.714 136.385 546.849 136.891C546.985 137.391 547.053 137.938 547.053 138.531V139.18H540.74V138H545.607V137.891C545.586 137.516 545.508 137.151 545.373 136.797C545.243 136.443 545.034 136.151 544.748 135.922C544.461 135.693 544.071 135.578 543.576 135.578C543.248 135.578 542.946 135.648 542.67 135.789C542.394 135.924 542.157 136.128 541.959 136.398C541.761 136.669 541.607 137 541.498 137.391C541.388 137.781 541.334 138.232 541.334 138.742V139.07C541.334 139.471 541.388 139.849 541.498 140.203C541.612 140.552 541.776 140.859 541.99 141.125C542.209 141.391 542.472 141.599 542.779 141.75C543.092 141.901 543.446 141.977 543.842 141.977C544.352 141.977 544.784 141.872 545.138 141.664C545.493 141.456 545.803 141.177 546.068 140.828L546.943 141.523C546.761 141.799 546.529 142.062 546.248 142.312C545.967 142.562 545.62 142.766 545.209 142.922C544.803 143.078 544.321 143.156 543.763 143.156Z" fill="black"/>
</svg>
