<svg width="10" height="14" viewBox="0 0 10 14" fill="none" xmlns="http://www.w3.org/2000/svg">
<g id="Icon">
<path d="M5.74999 5.75C5.74999 5.33579 5.41421 5 4.99999 5C4.58578 5 4.24999 5.33579 4.24999 5.75L4.24999 7C4.24999 7.19891 4.32901 7.38968 4.46966 7.53033L5.71966 8.78033C6.01255 9.07322 6.48743 9.07322 6.78032 8.78033C7.07322 8.48744 7.07322 8.01256 6.78032 7.71967L5.74999 6.68934L5.74999 5.75Z" fill="#4A4A4A"/>
<path fill-rule="evenodd" clip-rule="evenodd" d="M4 0C3.0335 0 2.25 0.783501 2.25 1.75V2.68252C1.06055 3.31127 0.25 4.56098 0.25 6V8C0.25 9.43902 1.06055 10.6887 2.25 11.3175V12.25C2.25 13.2165 3.0335 14 4 14H6C6.9665 14 7.75 13.2165 7.75 12.25V11.3175C8.93945 10.6887 9.75 9.43902 9.75 8V6C9.75 4.56098 8.93945 3.31127 7.75 2.68252V1.75C7.75 0.783502 6.9665 0 6 0H4ZM4 2.25C3.91599 2.25 3.83263 2.25276 3.75 2.2582V1.75C3.75 1.61193 3.86193 1.5 4 1.5H6C6.13807 1.5 6.25 1.61193 6.25 1.75V2.2582C6.16737 2.25276 6.08401 2.25 6 2.25H4ZM3.75 12.25V11.7418C3.83263 11.7472 3.91599 11.75 4 11.75H6C6.08401 11.75 6.16737 11.7472 6.25 11.7418V12.25C6.25 12.3881 6.13807 12.5 6 12.5H4C3.86193 12.5 3.75 12.3881 3.75 12.25ZM4 3.75C2.75736 3.75 1.75 4.75736 1.75 6V8C1.75 9.24264 2.75736 10.25 4 10.25H6C7.24264 10.25 8.25 9.24264 8.25 8V6C8.25 4.75736 7.24264 3.75 6 3.75H4Z" fill="#4A4A4A"/>
</g>
</svg>
